<svg class="svgName" xmlns="http://www.w3.org/2000/svg" viewBox="0 0 249.13 31.98">
<defs>

</defs>
<title>Name</title>
<g id="Capa_2" data-name="Capa 2">
<g id="nameSvg" data-name="Capa 1">
<path class="cls-1" d="M2.45,22.76l-.24.5c0,.36.5.7,1.51,1A10.66,10.66,0,0,0,7,24.78a16.59,16.59,0,0,0,4-.54,19.33,19.33,0,0,0,3.78-1.32,13.16,13.16,0,0,0,2.65-1.63c.7-.57,1.05-1.06,1.05-1.48s-.62-1-1.86-1.49a49,49,0,0,0-5.39-1.51,13.85,13.85,0,0,1-5.17-2.09,3.75,3.75,0,0,1-1.65-3.07,5.57,5.57,0,0,1,1.3-3.46A12.73,12.73,0,0,1,9.12,5.26,31.67,31.67,0,0,1,13.67,3,25.54,25.54,0,0,1,23.14.92a13.07,13.07,0,0,1,2.95.3c1.63.38,2.45.89,2.45,1.52A3.36,3.36,0,0,1,28.37,4a1.82,1.82,0,0,1-.27.45,1.16,1.16,0,0,1-.26.22l-.23.17c-.55.46-2,.74-4.47.85a7.5,7.5,0,0,0-1.38.13.34.34,0,0,1-.19.08c-.06,0-.12,0-.19-.15a.77.77,0,0,1-.12-.48A2.78,2.78,0,0,1,22,4.07a18,18,0,0,0-4.84,1,24.76,24.76,0,0,0-4.46,2.05A21.86,21.86,0,0,0,9.54,9.41Q8.28,10.51,8.28,11a1.08,1.08,0,0,0,.27.75c.52.55,2,1.14,4.33,1.74A33.94,33.94,0,0,1,17.78,15a18.9,18.9,0,0,1,2,1.1,6.25,6.25,0,0,1,1.29,1.06,4,4,0,0,1,1.13,2.63,4.71,4.71,0,0,1-.72,2.51,8.5,8.5,0,0,1-2.15,2.26A16.75,16.75,0,0,1,16,26.49,24.84,24.84,0,0,1,5.81,28.4q-4.3,0-5.49-2.28A2.4,2.4,0,0,1,0,24.92,2.22,2.22,0,0,1,.29,23.8,2.05,2.05,0,0,1,1,23a2.63,2.63,0,0,1,1.14-.5C2.34,22.54,2.45,22.61,2.45,22.76Z"/>
<path class="cls-1" d="M36.7,14a2.84,2.84,0,0,1-1,2.15,3.22,3.22,0,0,1-2.26.93c-.27,0-.45-.06-.53-.19a.88.88,0,0,1-.13-.51,2.56,2.56,0,0,1,.07-.62,8.62,8.62,0,0,0-1.48.69,18.67,18.67,0,0,0-2,1.37c-.79.61-1.19,1.06-1.19,1.36,0,.1.15.15.44.15A5,5,0,0,0,30,19a5,5,0,0,1,1.27-.31,2,2,0,0,1,.47,0,1.74,1.74,0,0,1,.52.57,1.4,1.4,0,0,1,.28.68q0,.25-.48.66a3.51,3.51,0,0,1-1.1.62,6.87,6.87,0,0,0-.82.33q-3.91,2.19-3.91,3c0,1,.82,1.45,2.47,1.45a5.9,5.9,0,0,0,3.17-1,26.55,26.55,0,0,0,2.44-1.73c.72-.59,1.18-.95,1.37-1.09a.84.84,0,0,1,.44-.2c.32,0,.48.35.48,1.07a4.75,4.75,0,0,1-.13,1.42,2.44,2.44,0,0,1-.74.85c-2.65,2.15-5.15,3.22-7.52,3.22a7.25,7.25,0,0,1-3-.52,3.06,3.06,0,0,1-2.08-2.89q0-2.57,3.55-3.88a1.61,1.61,0,0,1-.91-.81,4.26,4.26,0,0,1-.21-1.57,3.69,3.69,0,0,1,1-2.3,8.25,8.25,0,0,1,2.48-2,12.63,12.63,0,0,1,5.83-1.76,2.86,2.86,0,0,1,1.24.3A.9.9,0,0,1,36.7,14Z"/>
<path class="cls-1" d="M51.27,1.38q-3.92,5.88-7.63,12.3A7,7,0,0,1,45.56,13a9.56,9.56,0,0,1,1.5-.19c.29,0,.54,0,.76,0a3.3,3.3,0,0,1,.8.2,2.63,2.63,0,0,1,.85.49,2.75,2.75,0,0,1,.85,2.16,7.51,7.51,0,0,1-.75,3.05,16.88,16.88,0,0,1-2,3.33,26.83,26.83,0,0,1-2.82,3.11,14.19,14.19,0,0,1-3.3,2.34,7.15,7.15,0,0,1-3.28.91,2.5,2.5,0,0,1-1.62-.91,3.17,3.17,0,0,1-.92-2.39,13.71,13.71,0,0,1,1.28-4.6A55.18,55.18,0,0,1,40,14.23C41.19,12.09,42.44,10,43.71,8s2.34-3.71,3.23-5A22.76,22.76,0,0,1,48.58.7,2.31,2.31,0,0,1,49.66.2,5,5,0,0,1,51,0c.38,0,.57.18.57.53A1.7,1.7,0,0,1,51.27,1.38Zm-5,17.82A5.14,5.14,0,0,0,47,16.76c0-.72-.23-1.09-.7-1.09a6.33,6.33,0,0,0-2.13.6,9.1,9.1,0,0,1-1.64.61c-.14,0-.32-.12-.54-.34Q38.4,23,38.39,24.85q0,.84.54.84c.85,0,2.08-.72,3.69-2.14A17,17,0,0,0,46.26,19.2Z"/>
<path class="cls-1" d="M64.31,13.76q1.41,0,1.41,1a1,1,0,0,1-.24.76,12.54,12.54,0,0,0-1,1.61,36.4,36.4,0,0,0-1.74,3.49,16.54,16.54,0,0,0-1.24,3.62,1.86,1.86,0,0,0,0,.52c0,.68.18,1,.55,1a2.45,2.45,0,0,0,1.32-.52,9,9,0,0,0,1.35-1.14c.4-.4.79-.81,1.16-1.23s.61-.66.68-.72a.55.55,0,0,1,.34-.1q.34,0,.42.54a8.09,8.09,0,0,1,.08,1.12,2,2,0,0,1-.11.79A9,9,0,0,1,64.84,27a5.56,5.56,0,0,1-3.32,1.48,2.6,2.6,0,0,1-2.2-.91,3.23,3.23,0,0,1-.71-2A4.66,4.66,0,0,1,59,23.65,16,16,0,0,1,55.45,27a6.26,6.26,0,0,1-3.26,1.4,2.87,2.87,0,0,1-2.06-.77,3.39,3.39,0,0,1-1-2.62,8.16,8.16,0,0,1,.76-3.38,12.44,12.44,0,0,1,2-3.1A20.29,20.29,0,0,1,54.53,16a9.52,9.52,0,0,1,5.68-2.41,3.5,3.5,0,0,1,1.63.33,1.57,1.57,0,0,1,.8.84,2.89,2.89,0,0,1,.75-.85A2,2,0,0,1,64.31,13.76Zm-2.47,2.06q-3.17,0-6.57,3.52a15.39,15.39,0,0,0-2.21,3,6.25,6.25,0,0,0-1,2.41c0,.43.12.65.37.65s1.31-.68,2.89-2.05a28.69,28.69,0,0,0,3.16-3C59,19.65,60.16,18.13,61.84,15.82Z"/>
<path class="cls-1" d="M67.67,24.15l0,.3a1.05,1.05,0,0,0,.35.79,1,1,0,0,0,.65.34,10.76,10.76,0,0,0,3.95-.67c1.14-.45,1.71-.89,1.71-1.34,0-.21-.21-.39-.62-.54a17.5,17.5,0,0,0-2.1-.58c-1-.23-1.69-.41-2.14-.54a9.76,9.76,0,0,1-1.06-.36,4.17,4.17,0,0,1-.8-.46,2.1,2.1,0,0,1-.87-1.83,4,4,0,0,1,.9-2.41,8.26,8.26,0,0,1,2.26-2.05,20,20,0,0,1,2.91-1.51A14.11,14.11,0,0,1,78,12c1.37,0,2.22.3,2.54.9a1.6,1.6,0,0,1,.15.7v.13a2.49,2.49,0,0,1-.42,1.54,3.57,3.57,0,0,1-1.32,1,3.45,3.45,0,0,1-1.43.45,1.69,1.69,0,0,1-.66-.08.75.75,0,0,1-.24-.19.58.58,0,0,0-.23-.18.27.27,0,0,1-.14-.28.7.7,0,0,1,.19-.45,1.55,1.55,0,0,0,.26-.49,8,8,0,0,0-2.56.56,11.63,11.63,0,0,0-2.29,1.14A14.17,14.17,0,0,0,70.23,18c-.42.38-.63.67-.63.84s.28.33.85.44a27.81,27.81,0,0,1,5,1.32,3.91,3.91,0,0,1,1.67,1.26,2.38,2.38,0,0,1,.46,1.28,3.34,3.34,0,0,1-.94,2.25,7.33,7.33,0,0,1-2.34,1.72,12.16,12.16,0,0,1-5.21,1.47,5.11,5.11,0,0,1-3.06-.68,2,2,0,0,1-.84-1.61,3.31,3.31,0,0,1,.47-1.71,1.39,1.39,0,0,1,1.22-.79C67.42,23.76,67.67,23.89,67.67,24.15Z"/>
<path class="cls-1" d="M92.37,4l.76.19a.35.35,0,0,1,.29.16.53.53,0,0,1,.13.32,2.75,2.75,0,0,1-.39.8c-.26.43-.56.92-.92,1.47s-.54.85-.56.9c1-.07,1.65-.11,2-.11a2.87,2.87,0,0,1,.82.08,1.4,1.4,0,0,1,.51.47,3.81,3.81,0,0,0,.53.57.72.72,0,0,1,.24.59.76.76,0,0,1-.47.66,2.55,2.55,0,0,1-1,.32c-2.87.29-4.45.43-4.75.45q-1.5,2.3-4.2,7.17t-2.87,6.09a7,7,0,0,0-.07.91c0,.48.25.73.76.73a3.28,3.28,0,0,0,1.69-.59,13.67,13.67,0,0,0,1.7-1.27A16.88,16.88,0,0,1,88.84,22c.32,0,.48.55.48,1.67a2.14,2.14,0,0,1-.83,1.63,28.66,28.66,0,0,1-3.16,2.43,4.73,4.73,0,0,1-2.56.81,2.19,2.19,0,0,1-.52,0,3.7,3.7,0,0,1-2.18-1.09,3.17,3.17,0,0,1-.68-2.18,9.07,9.07,0,0,1,.81-3.33,42.44,42.44,0,0,1,2-4.16q2-3.6,4-6.76l-.7.1c-1.44.16-2.27.24-2.51.24h-.16a2.49,2.49,0,0,1-1-.22c-.34-.14-.5-.31-.5-.52a.92.92,0,0,1,.26-.62,1.55,1.55,0,0,0,.33-.46,2.08,2.08,0,0,1,1-.91,3.49,3.49,0,0,1,1.27-.53L85,8l.89,0,.75,0,1.67-.07c1-1.56,1.76-2.56,2.14-3a9,9,0,0,1,.68-.73.74.74,0,0,1,.37-.07Z"/>
<path class="cls-1" d="M96.84,23.69a2.1,2.1,0,0,1-.11.79,7,7,0,0,1-2.9,3,7.18,7.18,0,0,1-3.45,1.14,3.58,3.58,0,0,1-2.52-1,2.79,2.79,0,0,1-1.06-2,7.25,7.25,0,0,1,1-3c.68-1.29,1.36-2.49,2-3.59a12.31,12.31,0,0,0,1-1.8c0-.09-.13-.27-.38-.54a1.19,1.19,0,0,1-.38-.61c0-.13.26-.47.77-1a13.48,13.48,0,0,1,1.87-1.63,3.39,3.39,0,0,1,1.69-.81,1.41,1.41,0,0,1,1,.52,1.51,1.51,0,0,1,.46,1q0,.42-4.41,8c0,.08-.14.24-.31.5l-.39.63c-.09.16-.2.36-.32.6a2.87,2.87,0,0,0-.37,1.24c0,.42.28.63.85.63a3.28,3.28,0,0,0,1.77-.58,8.28,8.28,0,0,0,1.59-1.29,9.07,9.07,0,0,1,2-1.87C96.68,22,96.84,22.57,96.84,23.69Zm3-16.2a3.19,3.19,0,0,1-1,2.12,2.83,2.83,0,0,1-2,1.07,1,1,0,0,1-1.07-1.11,3.09,3.09,0,0,1,.94-2.13,2.78,2.78,0,0,1,2.07-1,1.12,1.12,0,0,1,.8.28A1,1,0,0,1,99.84,7.49Z"/>
<path class="cls-1" d="M109.62,13.76q1.41,0,1.41,1a1,1,0,0,1-.24.76,12.54,12.54,0,0,0-1,1.61A36.4,36.4,0,0,0,108,20.58a16.54,16.54,0,0,0-1.24,3.62,2.34,2.34,0,0,0,0,.52c0,.68.18,1,.55,1a2.45,2.45,0,0,0,1.32-.52A9.65,9.65,0,0,0,110,24.08c.39-.4.78-.81,1.15-1.23s.61-.66.68-.72a.55.55,0,0,1,.34-.1q.34,0,.42.54a8.09,8.09,0,0,1,.08,1.12,2,2,0,0,1-.11.79A9,9,0,0,1,110.15,27a5.56,5.56,0,0,1-3.32,1.48,2.6,2.6,0,0,1-2.2-.91,3.23,3.23,0,0,1-.71-2,4.66,4.66,0,0,1,.38-1.94A16,16,0,0,1,100.76,27a6.26,6.26,0,0,1-3.26,1.4,2.83,2.83,0,0,1-2-.77,3.36,3.36,0,0,1-1-2.62,8.32,8.32,0,0,1,.76-3.38,12.44,12.44,0,0,1,2-3.1A20.92,20.92,0,0,1,99.84,16a9.52,9.52,0,0,1,5.68-2.41,3.5,3.5,0,0,1,1.63.33,1.57,1.57,0,0,1,.8.84,2.89,2.89,0,0,1,.75-.85A2,2,0,0,1,109.62,13.76Zm-2.47,2.06q-3.16,0-6.57,3.52a15.39,15.39,0,0,0-2.21,3,6.25,6.25,0,0,0-1,2.41c0,.43.12.65.37.65s1.31-.68,2.89-2.05a27.77,27.77,0,0,0,3.16-3C104.35,19.65,105.47,18.13,107.15,15.82Z"/>
<path class="cls-1" d="M120.62,25c0,.55.38.82,1.12.82a2.92,2.92,0,0,0,1.49-.6,10.43,10.43,0,0,0,1.62-1.29A10.05,10.05,0,0,1,127,22c.33,0,.49.46.49,1.39a2,2,0,0,1-.88,1.91,14.48,14.48,0,0,1-4.1,2.91,5.16,5.16,0,0,1-1.8.26,3.08,3.08,0,0,1-1.94-.85,2.59,2.59,0,0,1-1-2,7.2,7.2,0,0,1,.63-2.72,18.67,18.67,0,0,1,1.29-2.61q.66-1.08,1.62-2.52a7.67,7.67,0,0,0,1-1.79l0,0c-.41,0-1.42.84-3,2.41s-2.94,2.94-4,4.1-2.31,2.72-3.77,4.66c-.41.53-.74.8-1,.8a3.36,3.36,0,0,1-1-.25,5.12,5.12,0,0,1-.81-.36.41.41,0,0,1-.15-.34,1.71,1.71,0,0,1,.13-.55,5.46,5.46,0,0,1,.25-.53c.08-.15.22-.37.4-.66s.56-.93,1.11-1.89S111.84,20.93,113,19s1.82-3.06,2-3.45a14.37,14.37,0,0,1,1.15-1.78A3.38,3.38,0,0,1,119,12.74c.3,0,.45.18.45.55,0,.59-.54,1.68-1.62,3.29L117,17.75a17.72,17.72,0,0,1,5.42-4.51,4.94,4.94,0,0,1,1.94-.46,1.94,1.94,0,0,1,1.37.46,1.37,1.37,0,0,1,.51,1,3.12,3.12,0,0,1-.39,1.35A12.91,12.91,0,0,1,125.1,17c-.26.42-.61.94-1,1.57l-.71,1-.29.45c-.15.24-.27.41-.34.53s-.2.3-.37.58l-.42.7-.39.68c-.15.27-.28.51-.37.71s-.19.41-.29.65A3.09,3.09,0,0,0,120.62,25Z"/>
<path class="cls-1" d="M162.06,21l.15.71a1.88,1.88,0,0,1-.47,1.06,21.41,21.41,0,0,1-3.92,3.66q-2.7,2.07-4,2.07a2.67,2.67,0,0,1-2-.75,2.41,2.41,0,0,1-.72-1.72c0-.76.8-2.46,2.41-5.08q3.61-5.85,9.24-13.66l-6.31,6.61q-11.32,11.86-13.24,13.45a1.46,1.46,0,0,1-.92.26,2.14,2.14,0,0,1-1.27-.49,1.38,1.38,0,0,1-.67-1.11v-.09q.08-.78,3.58-7.63t5.88-10.89q-3.51,3.87-7.09,8.61a101.89,101.89,0,0,0-10,15.37c-.19.39-.41.59-.69.59a5.3,5.3,0,0,1-1.18-.2c-1.09-.3-1.64-.82-1.64-1.56q0-.67,2.73-4.78t6.33-9q3.6-4.87,7.46-9.38Q151.09.84,152.61.84a1,1,0,0,1,.47.13,1,1,0,0,0,.27.12.17.17,0,0,0,.12-.06,1.18,1.18,0,0,1,.95-.3,3.71,3.71,0,0,1,1.39.28c.46.19.68.4.68.63a31.78,31.78,0,0,1-1.85,3.55q-6.22,11-8.35,15.14,2-2.47,5.83-6.55t8-8.15c3.62-3.51,5.79-5.27,6.49-5.27a3.84,3.84,0,0,1,1.08.19,8,8,0,0,0,2.21.33,1,1,0,0,1,.51.25.57.57,0,0,1,.21.4.48.48,0,0,1-.11.34q-6,8-10.17,14.13a70.87,70.87,0,0,0-5.1,8.28c1.3-.27,3.23-1.83,5.81-4.66a1.86,1.86,0,0,1,.24-.29l.13-.15c.21-.25.37-.1.48.46,0,.32.09.55.1.68s0,.26.06.41A2.42,2.42,0,0,1,162.06,21Z"/>
<path class="cls-1" d="M177.18,13.76q1.41,0,1.41,1a1,1,0,0,1-.24.76,11.46,11.46,0,0,0-1,1.61,38.66,38.66,0,0,0-1.75,3.49,17,17,0,0,0-1.23,3.62,1.81,1.81,0,0,0-.06.52c0,.68.19,1,.56,1a2.45,2.45,0,0,0,1.32-.52,9,9,0,0,0,1.35-1.14c.4-.4.79-.81,1.16-1.23s.61-.66.68-.72a.52.52,0,0,1,.33-.1c.24,0,.38.18.43.54a8.09,8.09,0,0,1,.08,1.12,1.82,1.82,0,0,1-.12.79A9,9,0,0,1,177.71,27a5.56,5.56,0,0,1-3.32,1.48,2.6,2.6,0,0,1-2.2-.91,3.23,3.23,0,0,1-.71-2,4.83,4.83,0,0,1,.37-1.94A15.74,15.74,0,0,1,168.32,27a6.29,6.29,0,0,1-3.26,1.4,2.86,2.86,0,0,1-2.06-.77,3.39,3.39,0,0,1-1-2.62,8.31,8.31,0,0,1,.75-3.38,12.2,12.2,0,0,1,2-3.1A20.29,20.29,0,0,1,167.4,16a9.49,9.49,0,0,1,5.68-2.41,3.5,3.5,0,0,1,1.63.33,1.57,1.57,0,0,1,.8.84,2.89,2.89,0,0,1,.75-.85A2,2,0,0,1,177.18,13.76Zm-2.47,2.06q-3.17,0-6.57,3.52a15.39,15.39,0,0,0-2.21,3,6.33,6.33,0,0,0-1,2.41c0,.43.13.65.38.65s1.31-.68,2.89-2.05a28.33,28.33,0,0,0,3.15-3C171.9,19.65,173,18.13,174.71,15.82Z"/>
<path class="cls-1" d="M184.56,17.75q4.38-5,7.46-5a1.8,1.8,0,0,1,1.26.45,1.56,1.56,0,0,1,.49,1.18,5.91,5.91,0,0,1-1,2.42c-.69,1.13-1.32,2.09-1.9,2.87a1.34,1.34,0,0,1-1.05.59,1.06,1.06,0,0,1-.91-.43,1.58,1.58,0,0,1-.33-1A4.7,4.7,0,0,1,189.93,16l0,0c-.41,0-1.42.84-3,2.41s-3,3-4.12,4.22-2.36,2.76-3.69,4.54c-.38.53-.7.8-1,.8a3.34,3.34,0,0,1-1.06-.25,4.84,4.84,0,0,1-.8-.36.48.48,0,0,1-.14-.38,1.55,1.55,0,0,1,.15-.6,7.45,7.45,0,0,1,.55-1c.27-.42.67-1.1,1.21-2s1.37-2.37,2.51-4.27,1.82-3.06,2-3.45a15.66,15.66,0,0,1,1.15-1.78,3.38,3.38,0,0,1,2.82-1.06c.3,0,.45.18.45.55,0,.59-.54,1.68-1.62,3.29Z"/>
<path class="cls-1" d="M204.53,4l.76.19a.38.38,0,0,1,.3.16.6.6,0,0,1,.13.32,2.75,2.75,0,0,1-.39.8c-.26.43-.57.92-.92,1.47l-.57.9c1-.07,1.65-.11,2-.11a3,3,0,0,1,.83.08,1.4,1.4,0,0,1,.51.47,3.35,3.35,0,0,0,.53.57.72.72,0,0,1,.24.59.78.78,0,0,1-.48.66,2.55,2.55,0,0,1-1,.32c-2.87.29-4.45.43-4.75.45q-1.5,2.3-4.2,7.17c-1.8,3.25-2.75,5.28-2.87,6.09,0,.37-.07.68-.07.91,0,.48.25.73.76.73a3.25,3.25,0,0,0,1.69-.59,13.08,13.08,0,0,0,1.71-1.27A16.5,16.5,0,0,1,201,22c.32,0,.49.55.49,1.67a2.12,2.12,0,0,1-.84,1.63,29.69,29.69,0,0,1-3.15,2.43,4.78,4.78,0,0,1-2.56.81,2.14,2.14,0,0,1-.52,0,3.67,3.67,0,0,1-2.18-1.09,3.12,3.12,0,0,1-.69-2.18,9.32,9.32,0,0,1,.82-3.33,38.34,38.34,0,0,1,2-4.16q2-3.6,4-6.76l-.71.1c-1.43.16-2.27.24-2.5.24H195a2.49,2.49,0,0,1-1-.22c-.33-.14-.5-.31-.5-.52a.93.93,0,0,1,.27-.62,1.31,1.31,0,0,0,.32-.46,2.07,2.07,0,0,1,1-.91,3.36,3.36,0,0,1,1.27-.53l.82,0L198,8l.76,0,1.67-.07a34.91,34.91,0,0,1,2.14-3,7.36,7.36,0,0,1,.68-.73.72.72,0,0,1,.37-.07Z"/>
<path class="cls-1" d="M209,23.69a2.1,2.1,0,0,1-.11.79,7,7,0,0,1-2.9,3,7.18,7.18,0,0,1-3.45,1.14,3.61,3.61,0,0,1-2.52-1,2.79,2.79,0,0,1-1.06-2,7.25,7.25,0,0,1,1-3c.68-1.29,1.36-2.49,2-3.59a12.31,12.31,0,0,0,1-1.8c0-.09-.12-.27-.38-.54a1.19,1.19,0,0,1-.38-.61c0-.13.26-.47.77-1a13.6,13.6,0,0,1,1.88-1.63,3.35,3.35,0,0,1,1.69-.81,1.39,1.39,0,0,1,1,.52,1.53,1.53,0,0,1,.47,1q0,.42-4.42,8a5.53,5.53,0,0,1-.3.5,7,7,0,0,0-.39.63q-.15.24-.33.6a2.87,2.87,0,0,0-.37,1.24c0,.42.28.63.85.63a3.34,3.34,0,0,0,1.78-.58,8.21,8.21,0,0,0,1.58-1.29,9,9,0,0,1,2-1.87C208.84,22,209,22.57,209,23.69Zm3-16.2a3.16,3.16,0,0,1-1,2.12A2.82,2.82,0,0,1,209,10.68c-.71,0-1.06-.37-1.06-1.11a3.12,3.12,0,0,1,.93-2.13,2.81,2.81,0,0,1,2.07-1,1.1,1.1,0,0,1,.8.28A1,1,0,0,1,212,7.49Z"/>
<path class="cls-1" d="M217.31,25c0,.55.37.82,1.12.82a2.92,2.92,0,0,0,1.49-.6,10.43,10.43,0,0,0,1.62-1.29A10.05,10.05,0,0,1,223.73,22c.32,0,.49.46.49,1.39a2.05,2.05,0,0,1-.88,1.91,14.62,14.62,0,0,1-4.1,2.91,5.16,5.16,0,0,1-1.8.26,3.12,3.12,0,0,1-1.95-.85,2.61,2.61,0,0,1-1-2,7.2,7.2,0,0,1,.63-2.72,18.67,18.67,0,0,1,1.29-2.61q.66-1.08,1.62-2.52a7.09,7.09,0,0,0,1-1.79l0,0c-.41,0-1.42.84-3,2.41s-2.94,2.94-4,4.1-2.3,2.72-3.76,4.66c-.41.53-.74.8-1,.8a3.36,3.36,0,0,1-1-.25,5.12,5.12,0,0,1-.81-.36.41.41,0,0,1-.15-.34,1.71,1.71,0,0,1,.13-.55,5.46,5.46,0,0,1,.25-.53c.08-.15.22-.37.4-.66s.56-.93,1.11-1.89,1.39-2.39,2.53-4.29,1.82-3.06,2-3.45a14.37,14.37,0,0,1,1.15-1.78,3.38,3.38,0,0,1,2.82-1.06c.3,0,.45.18.45.55,0,.59-.54,1.68-1.62,3.29l-.78,1.17a17.72,17.72,0,0,1,5.42-4.51,4.94,4.94,0,0,1,1.94-.46,2,2,0,0,1,1.37.46,1.37,1.37,0,0,1,.51,1,3.12,3.12,0,0,1-.39,1.35,12.91,12.91,0,0,1-.79,1.41c-.26.42-.61.94-1,1.57l-.71,1-.29.45c-.15.24-.27.41-.34.53s-.2.3-.37.58-.31.51-.42.7l-.39.68c-.15.27-.28.51-.37.71s-.19.41-.29.65A3.09,3.09,0,0,0,217.31,25Z"/>
<path class="cls-1" d="M235.24,14a2.82,2.82,0,0,1-1,2.15,3.2,3.2,0,0,1-2.25.93.62.62,0,0,1-.54-.19.88.88,0,0,1-.13-.51,2.57,2.57,0,0,1,.08-.62,8.69,8.69,0,0,0-1.49.69,19.75,19.75,0,0,0-2,1.37c-.79.61-1.19,1.06-1.19,1.36,0,.1.15.15.44.15A4.89,4.89,0,0,0,228.5,19a5.08,5.08,0,0,1,1.27-.31,2.19,2.19,0,0,1,.48,0,1.74,1.74,0,0,1,.52.57A1.46,1.46,0,0,1,231,20q0,.25-.48.66a3.46,3.46,0,0,1-1.09.62,6.87,6.87,0,0,0-.82.33q-3.92,2.19-3.92,3c0,1,.83,1.45,2.47,1.45a6,6,0,0,0,3.18-1,26.34,26.34,0,0,0,2.43-1.73c.73-.59,1.19-.95,1.38-1.09a.82.82,0,0,1,.43-.2c.33,0,.49.35.49,1.07a5.13,5.13,0,0,1-.13,1.42,2.5,2.5,0,0,1-.75.85c-2.64,2.15-5.15,3.22-7.51,3.22a7.25,7.25,0,0,1-3-.52,3.06,3.06,0,0,1-2.08-2.89q0-2.57,3.54-3.88a1.64,1.64,0,0,1-.91-.81,4.54,4.54,0,0,1-.2-1.57,3.69,3.69,0,0,1,1-2.3,8.13,8.13,0,0,1,2.48-2,12.59,12.59,0,0,1,5.82-1.76,2.9,2.9,0,0,1,1.25.3A.9.9,0,0,1,235.24,14Z"/><path class="cls-1" d="M243.09,16c-4,.25-6.37.44-7,.58H236c-.25,0-.37-.16-.37-.48a2.67,2.67,0,0,1,.57-1.32,2.68,2.68,0,0,1,1.43-1.1,7,7,0,0,1,1.89-.27,57.56,57.56,0,0,0,7.2-.52,4.06,4.06,0,0,0,.53-.19,2.59,2.59,0,0,1,.86-.18.91.91,0,0,1,.7.4,1.61,1.61,0,0,1,.32,1,1.34,1.34,0,0,1-.33,1,2.77,2.77,0,0,1-1.21.57q-8.11,6.34-10.09,9.74c.41-.12,1.45-.34,3.12-.65q6.52-1.2,7.14-1.85a.59.59,0,0,1,.42-.19,1,1,0,0,1,.51.18c.18.12.28.65.28,1.6a2.08,2.08,0,0,1-.38,1,2.16,2.16,0,0,1-.87.82,51.14,51.14,0,0,1-5.38,1.06c-4.33.75-6.67,1.13-7,1.13s-.6,0-.69,0l-.26,0-.22-.06-.15-.06a.28.28,0,0,1-.13-.07l-.11-.07a2.74,2.74,0,0,0-.23-.22,1.52,1.52,0,0,1-.2-1,3.18,3.18,0,0,1,.07-.93,17.84,17.84,0,0,1,2.29-3.33,26,26,0,0,1,2.5-2.57c.73-.63,1.64-1.38,2.73-2.24S242.71,16.33,243.09,16Z"/></g></g></svg>